# MagicaVoxel @ Ephtracy

# group
o 

# material
mtllib PickAxe.mtl
usemtl palette

# normals
vn -1 0 0
vn 1 0 0
vn 0 0 1
vn 0 0 -1
vn 0 -1 0
vn 0 1 0

# texcoords
vt 0.201172 0.5
vt 0.369141 0.5
vt 0.958984 0.5
vt 0.962891 0.5
vt 0.982422 0.5
vt 0.986328 0.5

# verts
v -0.5 0.8 -3.72529e-08
v -0.5 0.8 -0.1
v -0.5 1 -3.72529e-08
v -0.5 1 -0.1
v -0.4 1 -3.72529e-08
v -0.4 1 -0.1
v -0.4 1.1 -3.72529e-08
v -0.4 1.1 -0.1
v -0.2 1.1 -3.72529e-08
v -0.2 1.1 -0.1
v -0.2 1.2 -3.72529e-08
v -0.2 1.2 -0.1
v 0 0 -3.72529e-08
v 0 0 -0.1
v 0 0.8 -3.72529e-08
v 0 0.8 -0.1
v 0 0.9 -3.72529e-08
v 0 0.9 -0.1
v 0.5 0.8 -3.72529e-08
v 0.5 0.8 -0.1
v 0.5 0.9 -3.72529e-08
v 0.5 0.9 -0.1
v -0.4 0.8 -3.72529e-08
v -0.4 0.8 -0.1
v -0.4 0.9 -3.72529e-08
v -0.4 0.9 -0.1
v 0.1 0 -3.72529e-08
v 0.1 0 -0.1
v 0.1 0.8 -3.72529e-08
v 0.1 0.8 -0.1
v 0.1 0.9 -3.72529e-08
v 0.1 0.9 -0.1
v 0.3 1.1 -3.72529e-08
v 0.3 1.1 -0.1
v 0.3 1.2 -3.72529e-08
v 0.3 1.2 -0.1
v 0.5 1 -3.72529e-08
v 0.5 1 -0.1
v 0.5 1.1 -3.72529e-08
v 0.5 1.1 -0.1
v 0.6 0.8 -3.72529e-08
v 0.6 0.8 -0.1
v 0.6 1 -3.72529e-08
v 0.6 1 -0.1
v -0.5 0.8 -3.72529e-08
v -0.5 1 -3.72529e-08
v -0.4 0.8 -3.72529e-08
v -0.4 0.9 -3.72529e-08
v -0.4 1 -3.72529e-08
v -0.4 1.1 -3.72529e-08
v -0.3 0.9 -3.72529e-08
v -0.3 1.1 -3.72529e-08
v -0.2 1.1 -3.72529e-08
v -0.2 1.2 -3.72529e-08
v -0.1 0.9 -3.72529e-08
v -0.1 1.1 -3.72529e-08
v 0 0 -3.72529e-08
v 0 0.8 -3.72529e-08
v 0 0.9 -3.72529e-08
v 0 1 -3.72529e-08
v 0 1.1 -3.72529e-08
v 0.1 0 -3.72529e-08
v 0.1 0.8 -3.72529e-08
v 0.1 0.9 -3.72529e-08
v 0.1 1 -3.72529e-08
v 0.1 1.1 -3.72529e-08
v 0.2 0.9 -3.72529e-08
v 0.2 1.1 -3.72529e-08
v 0.3 1.1 -3.72529e-08
v 0.3 1.2 -3.72529e-08
v 0.4 0.9 -3.72529e-08
v 0.4 1.1 -3.72529e-08
v 0.5 0.8 -3.72529e-08
v 0.5 0.9 -3.72529e-08
v 0.5 1 -3.72529e-08
v 0.5 1.1 -3.72529e-08
v 0.6 0.8 -3.72529e-08
v 0.6 1 -3.72529e-08
v -0.5 0.8 -0.1
v -0.5 1 -0.1
v -0.4 0.8 -0.1
v -0.4 0.9 -0.1
v -0.4 1 -0.1
v -0.4 1.1 -0.1
v -0.3 0.9 -0.1
v -0.3 1.1 -0.1
v -0.2 1.1 -0.1
v -0.2 1.2 -0.1
v -0.1 0.9 -0.1
v -0.1 1.1 -0.1
v 0 0 -0.1
v 0 0.8 -0.1
v 0 0.9 -0.1
v 0 1 -0.1
v 0 1.1 -0.1
v 0.1 0 -0.1
v 0.1 0.8 -0.1
v 0.1 0.9 -0.1
v 0.1 1 -0.1
v 0.1 1.1 -0.1
v 0.2 0.9 -0.1
v 0.2 1.1 -0.1
v 0.3 1.1 -0.1
v 0.3 1.2 -0.1
v 0.4 0.9 -0.1
v 0.4 1.1 -0.1
v 0.5 0.8 -0.1
v 0.5 0.9 -0.1
v 0.5 1 -0.1
v 0.5 1.1 -0.1
v 0.6 0.8 -0.1
v 0.6 1 -0.1
v 0 0 -3.72529e-08
v 0.1 0 -3.72529e-08
v 0 0 -0.1
v 0.1 0 -0.1
v -0.5 0.8 -3.72529e-08
v -0.4 0.8 -3.72529e-08
v 0.5 0.8 -3.72529e-08
v 0.6 0.8 -3.72529e-08
v -0.5 0.8 -0.1
v -0.4 0.8 -0.1
v 0.5 0.8 -0.1
v 0.6 0.8 -0.1
v -0.4 0.9 -3.72529e-08
v -0.3 0.9 -3.72529e-08
v -0.1 0.9 -3.72529e-08
v 0 0.9 -3.72529e-08
v 0.1 0.9 -3.72529e-08
v 0.2 0.9 -3.72529e-08
v 0.4 0.9 -3.72529e-08
v 0.5 0.9 -3.72529e-08
v -0.4 0.9 -0.1
v -0.3 0.9 -0.1
v -0.1 0.9 -0.1
v 0 0.9 -0.1
v 0.1 0.9 -0.1
v 0.2 0.9 -0.1
v 0.4 0.9 -0.1
v 0.5 0.9 -0.1
v -0.5 1 -3.72529e-08
v -0.4 1 -3.72529e-08
v 0.5 1 -3.72529e-08
v 0.6 1 -3.72529e-08
v -0.5 1 -0.1
v -0.4 1 -0.1
v 0.5 1 -0.1
v 0.6 1 -0.1
v -0.4 1.1 -3.72529e-08
v -0.3 1.1 -3.72529e-08
v -0.2 1.1 -3.72529e-08
v 0.3 1.1 -3.72529e-08
v 0.4 1.1 -3.72529e-08
v 0.5 1.1 -3.72529e-08
v -0.4 1.1 -0.1
v -0.3 1.1 -0.1
v -0.2 1.1 -0.1
v 0.3 1.1 -0.1
v 0.4 1.1 -0.1
v 0.5 1.1 -0.1
v -0.2 1.2 -3.72529e-08
v 0.3 1.2 -3.72529e-08
v -0.2 1.2 -0.1
v 0.3 1.2 -0.1

# faces
f 3/6/1 2/6/1 1/6/1
f 4/6/1 2/6/1 3/6/1
f 7/6/1 6/6/1 5/6/1
f 8/6/1 6/6/1 7/6/1
f 11/5/1 10/5/1 9/5/1
f 12/5/1 10/5/1 11/5/1
f 15/2/1 14/2/1 13/2/1
f 16/2/1 14/2/1 15/2/1
f 17/1/1 16/1/1 15/1/1
f 18/1/1 16/1/1 17/1/1
f 21/6/1 20/6/1 19/6/1
f 22/6/1 20/6/1 21/6/1
f 23/6/2 24/6/2 25/6/2
f 25/6/2 24/6/2 26/6/2
f 27/2/2 28/2/2 29/2/2
f 29/2/2 28/2/2 30/2/2
f 29/1/2 30/1/2 31/1/2
f 31/1/2 30/1/2 32/1/2
f 33/5/2 34/5/2 35/5/2
f 35/5/2 34/5/2 36/5/2
f 37/6/2 38/6/2 39/6/2
f 39/6/2 38/6/2 40/6/2
f 41/6/2 42/6/2 43/6/2
f 43/6/2 42/6/2 44/6/2
f 47/6/3 46/6/3 45/6/3
f 48/6/3 46/6/3 47/6/3
f 49/6/3 46/6/3 48/6/3
f 51/6/3 50/6/3 49/6/3
f 51/6/3 49/6/3 48/6/3
f 52/6/3 50/6/3 51/6/3
f 53/5/3 52/5/3 51/5/3
f 55/5/3 53/5/3 51/5/3
f 55/5/3 54/5/3 53/5/3
f 56/5/3 54/5/3 55/5/3
f 59/4/3 56/4/3 55/4/3
f 60/4/3 56/4/3 59/4/3
f 61/5/3 54/5/3 56/5/3
f 61/4/3 56/4/3 60/4/3
f 62/2/3 58/2/3 57/2/3
f 63/1/3 60/1/3 59/1/3
f 63/2/3 58/2/3 62/2/3
f 63/1/3 59/1/3 58/1/3
f 64/1/3 60/1/3 63/1/3
f 65/3/3 61/3/3 60/3/3
f 65/1/3 60/1/3 64/1/3
f 66/5/3 54/5/3 61/5/3
f 66/3/3 61/3/3 65/3/3
f 67/4/3 65/4/3 64/4/3
f 67/4/3 66/4/3 65/4/3
f 68/5/3 54/5/3 66/5/3
f 68/4/3 66/4/3 67/4/3
f 69/5/3 68/5/3 67/5/3
f 69/5/3 54/5/3 68/5/3
f 70/5/3 54/5/3 69/5/3
f 71/5/3 69/5/3 67/5/3
f 72/5/3 69/5/3 71/5/3
f 74/6/3 72/6/3 71/6/3
f 75/6/3 72/6/3 74/6/3
f 76/6/3 72/6/3 75/6/3
f 77/6/3 74/6/3 73/6/3
f 77/6/3 75/6/3 74/6/3
f 78/6/3 75/6/3 77/6/3
f 79/6/4 80/6/4 81/6/4
f 81/6/4 80/6/4 82/6/4
f 82/6/4 80/6/4 83/6/4
f 83/6/4 84/6/4 85/6/4
f 82/6/4 83/6/4 85/6/4
f 85/6/4 84/6/4 86/6/4
f 85/5/4 86/5/4 87/5/4
f 85/5/4 87/5/4 89/5/4
f 87/5/4 88/5/4 89/5/4
f 89/5/4 88/5/4 90/5/4
f 89/4/4 90/4/4 93/4/4
f 93/4/4 90/4/4 94/4/4
f 90/5/4 88/5/4 95/5/4
f 94/4/4 90/4/4 95/4/4
f 91/2/4 92/2/4 96/2/4
f 93/1/4 94/1/4 97/1/4
f 96/2/4 92/2/4 97/2/4
f 92/1/4 93/1/4 97/1/4
f 97/1/4 94/1/4 98/1/4
f 94/3/4 95/3/4 99/3/4
f 98/1/4 94/1/4 99/1/4
f 95/5/4 88/5/4 100/5/4
f 99/3/4 95/3/4 100/3/4
f 98/4/4 99/4/4 101/4/4
f 99/4/4 100/4/4 101/4/4
f 100/5/4 88/5/4 102/5/4
f 101/4/4 100/4/4 102/4/4
f 101/5/4 102/5/4 103/5/4
f 102/5/4 88/5/4 103/5/4
f 103/5/4 88/5/4 104/5/4
f 101/5/4 103/5/4 105/5/4
f 105/5/4 103/5/4 106/5/4
f 105/6/4 106/6/4 108/6/4
f 108/6/4 106/6/4 109/6/4
f 109/6/4 106/6/4 110/6/4
f 107/6/4 108/6/4 111/6/4
f 108/6/4 109/6/4 111/6/4
f 111/6/4 109/6/4 112/6/4
f 115/2/5 114/2/5 113/2/5
f 116/2/5 114/2/5 115/2/5
f 121/6/5 118/6/5 117/6/5
f 122/6/5 118/6/5 121/6/5
f 123/6/5 120/6/5 119/6/5
f 124/6/5 120/6/5 123/6/5
f 133/6/5 126/6/5 125/6/5
f 134/5/5 127/5/5 126/5/5
f 134/6/5 126/6/5 133/6/5
f 135/4/5 128/4/5 127/4/5
f 135/5/5 127/5/5 134/5/5
f 136/4/5 128/4/5 135/4/5
f 137/4/5 130/4/5 129/4/5
f 138/5/5 131/5/5 130/5/5
f 138/4/5 130/4/5 137/4/5
f 139/6/5 132/6/5 131/6/5
f 139/5/5 131/5/5 138/5/5
f 140/6/5 132/6/5 139/6/5
f 141/6/6 142/6/6 145/6/6
f 145/6/6 142/6/6 146/6/6
f 143/6/6 144/6/6 147/6/6
f 147/6/6 144/6/6 148/6/6
f 149/6/6 150/6/6 155/6/6
f 150/5/6 151/5/6 156/5/6
f 155/6/6 150/6/6 156/6/6
f 156/5/6 151/5/6 157/5/6
f 152/5/6 153/5/6 158/5/6
f 153/6/6 154/6/6 159/6/6
f 158/5/6 153/5/6 159/5/6
f 159/6/6 154/6/6 160/6/6
f 161/5/6 162/5/6 163/5/6
f 163/5/6 162/5/6 164/5/6
